<svg xmlns="http://www.w3.org/2000/svg" viewBox="0 0 900 600" xml:space="preserve"><path fill="#29735F" d="M543 601H1V1h900v600zm19.5-540.04h-191c-55.83 0-111.66.04-167.49-.03-9.7-.01-19.01 1.63-27.39 6.52-17.16 10.02-25.52 25.23-25.52 45.07V438c0 17-.15 34 .07 51 .17 13.23 5.03 24.65 14.35 34.14C176.4 534.2 189.81 538.1 205 538.1c164.33-.08 328.66-.05 492.99-.06 2.16 0 4.34.08 6.5-.1 20.31-1.69 35.1-11.4 43.66-30.16 3.79-8.31 3.72-17.06 3.71-25.96-.1-121.83 0-243.66-.22-365.49-.01-7.86-1.03-16.15-3.66-23.5-7.15-19.9-25.42-31.77-47.47-31.82-45.67-.11-91.33-.04-138-.05"/><path fill="#5C3052" d="M563 60.96c46.17 0 91.83-.06 137.5.05 22.05.05 40.32 11.92 47.47 31.83 2.63 7.34 3.64 15.63 3.66 23.5.22 121.82.12 243.65.22 365.48.01 8.9.08 17.65-3.71 25.96-8.56 18.77-23.35 28.47-43.67 30.16-2.15.18-4.33.1-6.5.1-164.32 0-328.65-.02-492.98.06-15.18 0-28.6-3.89-39.47-14.95-9.32-9.5-14.18-20.91-14.35-34.14-.22-17-.08-34-.08-51V112.5c0-19.83 8.37-35.04 25.53-45.06 8.38-4.89 17.68-6.53 27.39-6.52 55.83.07 111.66.03 167.5.03zM727.11 423.5V114.56c0-19.22-9.63-28.78-28.92-28.86H208.27c-2.16 0-4.33-.05-6.5.05-15.72.74-25.64 10.84-25.65 26.64q-.11 187.21.08 374.44c0 4.04.88 8.4 2.56 12.05 5.2 11.23 14.76 14.55 26.65 14.54 164.3-.14 328.6-.1 492.9-.1q4 .01 8-.33c9.66-.87 21.32-10.9 20.97-23.5-.6-21.65-.17-43.33-.17-65.99"/><path fill="#9FDAAD" d="M727.11 424c0 22.16-.43 43.84.17 65.48.35 12.6-11.3 22.64-20.98 23.51-2.65.25-5.32.32-7.98.32-164.3.02-328.61-.03-492.91.1-11.89.02-21.45-3.3-26.65-14.53a30 30 0 0 1-2.56-12.05 251256 251256 0 0 1-.08-374.44c0-15.8 9.93-25.9 25.66-26.64 2.16-.1 4.33-.05 6.5-.05h489.9c19.3.08 28.92 9.64 28.93 28.86.01 102.98 0 205.96 0 309.44M489.95 241.46q-49.02 48.53-98.07 97.05c-7.22 7.15-12.95 7.1-20.2-.07-9.95-9.84-19.83-19.76-29.81-29.58-6.77-6.65-12.97-6.79-19.6-.24-28.79 28.48-57.59 56.94-86.12 85.68-2.51 2.53-4.23 6.94-4.37 10.55-.5 13.48-.25 26.99-.19 40.49.05 9.69 4.1 13.8 13.67 13.8H658.2c10.3 0 13.97-3.64 13.98-13.8.03-39.5-.04-79 .07-118.49.01-5.22-1.76-9.15-5.45-12.81-38.23-37.9-76.34-75.9-114.5-113.87-7.45-7.41-13-7.39-20.57.06-13.78 13.55-27.52 27.15-41.78 41.23M239.14 170.7a59.1 59.1 0 0 0 6.8 68.1c16.65 19.05 42.5 25.5 66.46 16.83 25.3-9.16 40.89-34.1 38.65-61.82-2.02-24.87-22.39-47.33-47.43-52.29-25.77-5.1-49.49 5.45-64.48 29.18"/><path fill="#5E3052" d="M490.2 241.2c14.02-13.82 27.76-27.42 41.54-40.97 7.56-7.45 13.12-7.47 20.57-.06 38.16 37.96 76.27 75.97 114.5 113.87 3.69 3.66 5.46 7.59 5.45 12.81-.11 39.5-.04 79-.07 118.49 0 10.16-3.68 13.8-13.98 13.8H245.26c-9.57 0-13.62-4.11-13.67-13.8-.06-13.5-.32-27.01.2-40.5.13-3.6 1.85-8.01 4.36-10.54 28.53-28.74 57.33-57.2 86.13-85.68 6.62-6.55 12.82-6.41 19.59.24 9.98 9.82 19.86 19.73 29.8 29.58 7.26 7.18 12.98 7.22 20.21.07 32.7-32.34 65.38-64.7 98.33-97.3m139.88 71.2-88.05-87.34c-1.91 1.82-3.25 3.04-4.54 4.32-42.6 42.24-85.23 84.44-127.75 126.75-9.88 9.84-21.22 14.56-35.25 12.05-8.07-1.45-14.54-5.6-20.15-11.27-7.36-7.43-14.59-15-22.13-22.78-2.12 1.99-3.45 3.18-4.72 4.44-19.27 19.15-37.98 38.9-58.03 57.2-10.14 9.26-15.05 18.84-13.25 32.45.6 4.54 1.31 6.23 6.22 6.23q189.46-.18 378.92-.02c4.42 0 6.04-1 6.01-5.78-.2-31.5-.03-63-.24-94.48-.02-2.63-1.43-5.75-3.19-7.78-4.13-4.77-8.86-9.02-13.86-13.99"/><path fill="#5D2F52" d="M239.32 170.38c14.81-23.4 38.53-33.96 64.3-28.86 25.04 4.96 45.41 27.42 47.42 52.29 2.25 27.72-13.34 52.66-38.64 61.82-23.96 8.68-49.81 2.22-66.46-16.83-15.33-17.54-20.08-44.38-6.62-68.42m17.4 32.63c.3 2.14.38 4.33.93 6.4 3.4 12.91 15.43 23.73 28.04 25.37 14.9 1.95 29.25-5.07 36.28-17.76 7-12.64 5.79-27.94-3.09-38.9-9.44-11.66-24.77-16.04-38.65-11.06-15.08 5.41-23.7 18.24-23.51 35.95"/><path fill="#FCC989" d="M630.34 312.66c4.74 4.72 9.47 8.97 13.6 13.74 1.76 2.03 3.17 5.15 3.18 7.78.22 31.49.04 62.98.25 94.48.03 4.77-1.6 5.78-6 5.78q-189.46-.16-378.93.02c-4.9 0-5.62-1.7-6.22-6.23-1.8-13.6 3.1-23.2 13.25-32.46 20.04-18.3 38.76-38.04 58.03-57.18 1.27-1.27 2.6-2.46 4.72-4.45 7.54 7.78 14.77 15.35 22.13 22.78 5.61 5.66 12.08 9.82 20.15 11.27 14.03 2.51 25.37-2.21 35.25-12.05 42.52-42.31 85.16-84.51 127.75-126.75 1.3-1.28 2.63-2.5 4.54-4.32z"/><path fill="#EE5071" d="M256.67 202.6c-.14-17.3 8.48-30.13 23.57-35.54 13.88-4.99 29.2-.6 38.64 11.06 8.88 10.96 10.1 26.26 3.09 38.9-7.03 12.69-21.37 19.7-36.28 17.76-12.61-1.64-24.63-12.46-28.04-25.37-.55-2.07-.63-4.26-.98-6.82"/></svg>