<svg xmlns="http://www.w3.org/2000/svg" viewBox="0 0 900 600" xml:space="preserve"><path fill="#1B1933" d="M900 601H1.08V1c299.28 0 598.64 0 898.46.46.46 200.16.46 399.85.46 599.54M589.85 132.24c-.29.26-.57.51-1.78.94-23.02-.06-46.05-.13-69.3-.28-.24-.08-.48-.1-1.38-.22L468.4 77.72l.7-1.54c4.9 0 9.8.05 14.7 0 5.9-.08 9.22-2.82 9.23-7.5.01-4.49-3.53-7.33-9.43-7.37-9.5-.06-19-.02-28.5-.02-12.5 0-25-.06-37.49.04-6.19.05-9.68 3.79-8.57 8.91.93 4.28 3.87 5.96 8.04 5.94 5.23-.03 10.46 0 17.15 0-2.12 2.66-3.14 4.08-4.29 5.39-13.92 15.72-27.95 31.33-41.71 47.19-2.9 3.34-5.84 4.59-10.23 4.57-45-.15-89.99-.1-134.98-.08-10.4 0-16.04 5.66-16.21 16.03q-.03 2.25-.01 4.5v275.96c0 1.84-.04 3.67.03 5.5.34 9.07 5.8 14.57 14.84 14.74 7 .14 14.02.4 20.98-.07 5.29-.36 6.35 1.59 6.27 6.5q-.4 27.98.05 55.98c.04 2.8 1.33 6.56 3.38 8.13 4.81 3.68 10.6-.45 10.65-7.4.1-18.16-.02-36.33.07-54.5.05-9.4-1.66-8.42 8.95-8.65 3.5-.07 4.64 1.15 4.6 4.6-.17 11.17-.07 22.34-.06 33.5 0 1.5-.06 3.01.1 4.5.43 4.3 2.44 7.3 7.09 7.58 4.14.25 6.92-2.81 7.34-7.82.11-1.32.06-2.66.06-4v-30.99c0-7.3 0-7.31 7.22-7.31h335.95c2.34 0 4.67.02 7-.07 6.42-.25 10.7-3.66 12.66-9.56.92-2.77 1.04-5.89 1.05-8.85.05-91.98-.12-183.97.2-275.96.04-15.51-3.5-23.65-22.65-22.42-6.39.41-12.82.07-19.34.07-.1-2.01-.2-3.16-.2-4.3-.02-12.5.03-25-.04-37.5-.04-5.18-2.99-8.42-7.27-8.32-4.04.1-6.9 3.31-7 8.13-.1 5.5-.04 11-.04 16.5v25.06h-13.6v-6.34c0-18.83.03-37.66-.04-56.5-.02-5.2-2.95-8.52-7.13-8.54s-7.15 3.3-7.19 8.5c-.1 12.66 0 25.33-.06 38-.04 7.98-.25 15.96-.82 24.31"/><path fill="#2D2938" d="M900.5 601c-.5-199.7-.5-399.38-.5-599.54.33-.3.94-.14.96.04.08 1.33.04 2.67.04 4 0 198.5 0 397-.5 595.5"/><path fill="#1B8AFB" d="M519 132.99c23.02.07 46.05.13 69.88.1 1-.47 1.2-.84 1.4-1.22.14-7.98.35-15.96.39-23.94.07-12.67-.04-25.33.06-38 .04-5.2 3.01-8.52 7.19-8.5s7.11 3.34 7.13 8.55c.07 18.83.04 37.66.04 56.49v6.34h13.6v-25.06c0-5.5-.07-11 .04-16.5.1-4.82 2.96-8.03 7-8.12 4.28-.1 7.24 3.13 7.27 8.31.07 12.5.02 25 .04 37.5 0 1.14.1 2.29.2 4.3 6.52 0 12.95.34 19.34-.07 19.15-1.23 22.7 6.9 22.64 22.42-.31 91.99-.14 183.98-.2 275.96 0 2.96-.12 6.08-1.04 8.85-1.97 5.9-6.24 9.31-12.66 9.56-2.33.1-4.66.07-7 .07H318.37c-7.22 0-7.22 0-7.21 7.31v31c0 1.33.04 2.67-.07 4-.42 5-3.2 8.06-7.34 7.81-4.65-.28-6.66-3.28-7.1-7.58-.15-1.49-.09-3-.1-4.5 0-11.16-.1-22.33.06-33.5.05-3.45-1.1-4.67-4.6-4.6-10.6.23-8.9-.75-8.94 8.66-.1 18.16.04 36.33-.07 54.5-.04 6.94-5.84 11.07-10.64 7.4-2.06-1.58-3.35-5.35-3.4-8.14q-.44-28-.04-55.99c.08-4.9-.98-6.85-6.27-6.49-6.96.48-13.99.2-20.98.07-9.03-.17-14.5-5.67-14.84-14.74-.07-1.83-.03-3.66-.03-5.5V153.78q-.02-2.25 0-4.5c.18-10.37 5.83-16.02 16.22-16.03 45-.03 89.99-.07 134.98.08 4.39.02 7.34-1.23 10.23-4.57 13.76-15.86 27.8-31.47 41.71-47.2 1.16-1.3 2.18-2.72 4.29-5.39h-17.15c-4.17.03-7.11-1.65-8.04-5.92-1.1-5.13 2.38-8.86 8.57-8.92 12.5-.1 25-.04 37.5-.04 9.49 0 18.99-.04 28.49.02 5.9.04 9.44 2.88 9.43 7.36-.01 4.7-3.33 7.43-9.23 7.5-4.9.06-9.8.01-14.7.01l-.7 1.55a6536 6536 0 0 0 49.54 55.14c.72.17.89.15 1.06.12m-22.4-.03c-.1-.44-.18-.88-.5-1.95l-45.3-51.27c-15.5 17.72-30.38 34.75-45.76 52.21.32.34.64.69 1.46 1.15.17-.04.33-.07 1.42.09 7.3.02 14.6.07 21.9.05 21.73-.07 43.45-.16 65.68-.14.17-.05.33-.1 1.1-.14M283.02 242.1c.06 4.6.11 9.22.05 14.76.03 4.33.07 8.67-.07 13.94.06 4.6.13 9.21.06 14.8 0 18.77 0 37.54-.04 57.25.03 4.47.05 8.93-.04 14.28.07 4.63.13 9.26.1 14.82-.04 4.32-.1 8.65-.1 12.98-.02 7.22 0 7.23 6.98 7.23H611.6c.33 0 .67-.04 1 .01 4.68.67 6.54-1.1 6.33-6.04-.35-8.14-.05-16.3-.14-24.46-.02-1.79-.56-3.56-.48-6.13.17-4.57.34-9.15.5-14.64-.06-23.54-.11-47.07.04-71.56-.07-4.65-.14-9.3-.1-14.93l.08-55.48c.01-7.8 0-7.8-7.96-7.8H291c-1.33 0-2.67.08-4 0-3.06-.17-4.11 1.37-4.03 4.26.15 5.66.15 11.32.05 17.84.06 4.62.12 9.23.05 14.76.04 4.4.08 8.8-.04 14.1m346.18 178.8h5.56l1.58-2.6c-3.5-2.8-6.9-5.78-10.58-8.3-2.04-1.4-4.6-2.9-6.92-2.9-112-.14-224-.12-336-.1-1.46 0-3.42-.16-4.31.66-4.21 3.86-8.13 8.03-12.16 12.09l.62 1.15zM290.5 162.58h-23.43c1.65 3.37 3.71 5.12 5.26 7.25 3.89 5.37 8.92 6.68 15.48 6.67 109.15-.2 218.3-.14 327.45-.14 7.75 0 16.07-5.81 19.3-13.78zm350.13 16.55c-6.35 4.62-7.85 10.76-7.81 18.57.32 63.63.42 127.27-.06 190.9-.08 10.74 7.67 14.19 13.62 21.35V174.59l-1.85-1.47c-1.14 1.84-2.27 3.67-3.9 6M255.08 230.5v179.77c4.4-4.43 7.92-7.51 10.84-11.08 1.52-1.88 2.8-4.61 2.8-6.96.15-67.13.13-134.25.1-201.37 0-1.45.1-3.41-.74-4.27-3.98-4.1-8.27-7.9-13-12.34z"/><path fill="#1B1021" d="M590.07 132.06c.02.19-.18.56-.73.94-.06-.25.22-.5.73-.94m-71.19.88c-.05.07-.22.1-.61.01.02-.16.26-.13.61 0"/><path fill="#1C3C72" d="M283.08 341.91c0-18.77 0-37.54.51-56.8 19.5-.5 38.47-.5 57.45-.52 1.83 0 3.67 0 5.48-.2 3.84-.45 6.04-2.71 6.35-6.52.33-3.89-1.77-6.39-5.33-7.42-1.87-.55-3.95-.5-5.93-.51q-29.21-.06-58.42-.08c-.04-4.33-.08-8.67.4-13.48 32.83-.48 65.14-.44 97.46-.55 11.48-.04 20.5-9.1 20.9-20.58.44-13.34-8.8-22.77-22.82-22.82-31.98-.12-63.96-.05-95.94-.06-.07-5.66-.07-11.33-.22-16.98-.08-2.9.97-4.43 4.03-4.26 1.33.08 2.67 0 4 0h319.86c7.96 0 7.97 0 7.96 7.8-.02 18.5-.06 36.98-.58 55.97-17.96.51-35.44.51-52.9.54-2.84 0-5.67 0-8.49.2-5.09.35-7.83 2.95-7.85 7.21-.03 4.53 2.77 7.04 8.23 7.3 1.66.1 3.33.04 5 .04l56.4.1c.06 23.54.1 47.07-.28 71.1-16.23.53-32.03.63-47.83.5-1.76 0-4.24-.71-5.15-1.98a1267 1267 0 0 1-28.23-40.79c12.78-.04 25.07-.04 37.36-.09 6.05-.02 9.32-2.56 9.39-7.15.07-4.82-2.96-7.56-9.03-7.59-16.27-.07-32.54.04-49.06-.18-3.93-5.4-7.6-10.54-11.3-15.69-5.3-7.39-9.96-7.43-15.16-.1-8 11.26-15.96 22.56-23.97 33.83-1.01 1.43-2.18 2.74-3.6 4.52-1.62-2.16-2.83-3.71-3.97-5.32q-11.4-16.13-22.8-32.22c-6.05-8.5-10.19-8.48-16.3.14a26378 26378 0 0 0-48.5 68.52c-1.82 2.59-3.6 4.3-7.18 4.28-29.98-.17-59.96-.14-89.94-.16"/><path fill="#1C3C72" d="M617.92 356.33c.3 1.78.84 3.55.86 5.34.1 8.15-.21 16.32.14 24.46.21 4.94-1.65 6.71-6.33 6.04-.33-.05-.67 0-1 0H289.97c-6.98 0-7-.02-6.99-7.24 0-4.33.07-8.66.61-13.46 68.17-.49 135.83-.5 203.48-.52 2.17 0 4.36.11 6.5-.2 4.02-.58 6.2-3.17 6.31-7.16.1-3.88-2.25-6.17-5.82-7.1-1.58-.41-3.3-.31-4.97-.32-11.5-.1-22.99-.16-34.28-.5l52.07-72.8c1.84 2.47 3.06 4.04 4.2 5.65 14.82 20.93 29.67 41.84 44.4 62.83 2.28 3.25 4.81 5.18 8.99 5.14 17.82-.16 35.64-.13 53.46-.17"/><path fill="#40AFFB" d="M618.11 355.93c-18 .43-35.82.4-53.64.56-4.18.04-6.7-1.89-8.99-5.14-14.73-21-29.58-41.9-44.4-62.83-1.14-1.61-2.36-3.17-4.2-5.65a7602 7602 0 0 1-52.5 72.81c-4.14.36-7.63.46-11.13.46l-160.14.1c-.03-4.46-.05-8.92-.06-13.86 30.01-.44 60-.48 89.97-.31 3.59.02 5.36-1.7 7.19-4.28q24.19-34.3 48.49-68.52c6.11-8.62 10.25-8.65 16.3-.14q11.41 16.1 22.8 32.22c1.14 1.6 2.35 3.17 3.96 5.32 1.43-1.78 2.6-3.1 3.6-4.52 8.02-11.27 15.98-22.56 23.98-33.84 5.2-7.32 9.87-7.28 15.17.11 3.68 5.15 7.36 10.3 11.39 16 3.8 5.28 7.28 10 10.75 14.73 9.53 13.61 19 27.28 28.72 40.76.91 1.27 3.4 1.97 5.15 1.99 15.8.12 31.6.02 47.85-.05.27 4.54.1 9.12-.26 14.08M445.68 295l-8.82-12.5-42.03 59.38c7.13 0 12.73 0 19.37.07 9.63.01 19.26.17 28.88-.07 2-.05 4.64-1.07 5.82-2.56a195 195 0 0 0 12.07-17.07c.85-1.34.78-4.21-.11-5.56-4.78-7.18-9.95-14.1-15.18-21.7"/><path fill="#1B1D3B" d="M628.74 420.89H267l-.62-1.15c4.03-4.06 7.95-8.23 12.16-12.09.9-.82 2.84-.65 4.31-.65 112-.03 224-.05 336 .1 2.32 0 4.88 1.49 6.92 2.88 3.69 2.53 7.07 5.51 10.58 8.3l-1.58 2.61z"/><path fill="#1B1933" d="M291 162.58h343.55c-3.22 7.97-11.54 13.78-19.28 13.78-109.15 0-218.3-.06-327.45.14-6.56.02-11.6-1.3-15.5-6.67-1.54-2.12-3.6-3.88-5.25-7.25z"/><path fill="#8899B5" d="M283.1 212.8c32.07-.42 64.05-.49 96.03-.37 14.02.05 23.26 9.48 22.81 22.82-.38 11.47-9.4 20.55-20.9 20.58-32.3.11-64.62.07-97.39.09-.5-4.6-.56-9.21-.08-14.27 31.48-.43 62.42-.42 93.37-.43 1.82 0 4.17.4 5.34-.54 2.1-1.7 4.66-4.19 4.84-6.51.16-2.05-2.35-4.7-4.3-6.36-1.14-.98-3.49-.74-5.3-.74-31.44-.03-62.88 0-94.32 0-.06-4.6-.12-9.22-.1-14.27"/><path fill="#899BB8" d="M283.05 356.68c53.44-.47 106.82-.5 160.2-.54 3.5 0 6.99-.1 10.92-.18 11.93.05 23.43.12 34.92.2 1.66.02 3.39-.08 4.97.33 3.57.93 5.92 3.22 5.82 7.1-.1 4-2.3 6.58-6.32 7.16-2.13.31-4.32.2-6.49.2l-203.43.06c-.52-4.62-.58-9.25-.59-14.32z"/><path fill="#1B1E3B" d="M640.88 178.87c1.38-2.08 2.51-3.92 3.65-5.75l1.85 1.47v235.36c-5.95-7.16-13.7-10.61-13.62-21.35.48-63.63.38-127.27.06-190.9-.04-7.8 1.46-13.95 8.05-18.83"/><path fill="#1B1E3C" d="M255.08 230v-55.75c4.73 4.44 9.02 8.24 13 12.34.83.86.74 2.82.74 4.27.03 67.12.06 134.25-.1 201.37 0 2.35-1.28 5.08-2.8 6.96-2.92 3.57-6.44 6.65-10.84 11.08z"/><path fill="#1B1A36" d="m405.53 131.53 45.27-51.8c15.4 17.43 30.35 34.35 45.3 51.74 0 .46-.25.76-.4.87l-.7.66-65.18.24c-7.3.02-14.6-.03-22.5-.3-.8-.45-1-.64-1.37-.95z"/><path fill="#1E3D73" d="M283.13 227.54c31.5-.47 62.95-.5 94.4-.47 1.8 0 4.15-.24 5.3.74 1.94 1.66 4.45 4.31 4.3 6.35-.2 2.33-2.75 4.82-4.86 6.51-1.17.95-3.52.55-5.34.55-30.94.01-61.89 0-93.28-.01-.5-4.41-.54-8.81-.52-13.67"/><path fill="#8898B5" d="M283.1 270.33c19.56-.45 39.04-.44 58.51-.39 1.99 0 4.06-.04 5.93.5 3.56 1.04 5.66 3.54 5.33 7.43-.31 3.8-2.51 6.07-6.35 6.51-1.81.2-3.65.2-5.48.2-18.98.03-37.96.03-57.38.03-.52-4.6-.59-9.2-.56-14.28"/><path fill="#8B9BB7" d="M618.74 269.82c-18.9.44-37.71.4-56.52.37-1.66 0-3.33.05-4.99-.03-5.46-.27-8.26-2.78-8.23-7.3.02-4.27 2.76-6.87 7.85-7.23 2.82-.2 5.65-.18 8.48-.19 17.47-.03 34.95-.03 52.86-.05.51 4.65.58 9.3.54 14.43"/><path fill="#1B1A36" d="M406 132.98c-.32-.34-.64-.69-.72-1.24.25-.21.53.1.65.45.11.37.07.79.07.79"/><path fill="#1B1021" d="M406.25 133.04c-.25-.06-.2-.48-.18-.69.25-.05.45.14.78.5-.02.18-.19.21-.6.19"/><path fill="#1B1A36" d="M496.21 131.78c.2.3.3.74.05 1-.34-.19-.4-.55-.4-.55z"/><path fill="#1B1021" d="M495.7 132.34c.16-.11.22.25.26.43-.13.23-.3.28-.7.28-.08-.23.1-.41.44-.71"/><path fill="#8899B5" d="M537.14 299.12c-3.96-4.7-7.43-9.42-11-14.44 16.18-.35 32.45-.46 48.72-.39 6.07.03 9.1 2.77 9.03 7.6-.07 4.58-3.34 7.12-9.4 7.14-12.28.05-24.57.05-37.35.1"/><path fill="#1D3E74" d="M445.88 295.59c5.03 7 10.2 13.93 14.98 21.1.89 1.35.96 4.22.1 5.56a194 194 0 0 1-12.06 17.07c-1.18 1.49-3.82 2.5-5.82 2.56-9.62.24-19.25.08-29.25-.31a2024 2024 0 0 1 32.04-45.98"/><path fill="#899BB8" d="M445.78 295.3c-10.71 15.49-21.51 30.69-32.47 46.23-5.75.35-11.35.35-18.48.35l42.03-59.38c3.25 4.6 6.04 8.55 8.92 12.8"/></svg>