<svg xmlns="http://www.w3.org/2000/svg" viewBox="0 0 900 600" xml:space="preserve"><path fill="#B92EA7" d="M648 601H1V1h900v600zm3.5-110h8c9.4-.5 15.5-6.2 16.3-15.6V127.9q.1-2.7-.1-5.4c-1.1-9.2-7.2-14.7-16.5-14.7H242.8c-9.5 0-15.7 5.8-16.6 15.2v347.9q-.1 3.5.4 7c1 6.4 5 10.5 11 12.1q4.5 1 9 .9z"/><path fill="#010001" d="m651 491-404.4-.1q-4.5.1-9-.9c-6-1.6-10-5.7-11-12.1q-.5-3.5-.5-7V127.5l.1-4.5c1-9.4 7.1-15.2 16.6-15.2h416.4c9.3 0 15.4 5.5 16.5 14.7q.3 2.7.2 5.5v342.9l-.1 4.5c-.8 9.4-6.9 15.1-16.3 15.5zm-380.2-76.6-12.3 11.3 1 1.3h389.4l-3.4-4.4-115.6-138c-9.3-11.1-20-11.1-29.3 0l-74.4 89q-13.3 15.7-28 1l-29.4-29.3c-10.3-10.2-18.2-10.2-28.4-.1zm133.5-144.5a47.6 47.6 0 0 0-1.8-70.5 48.5 48.5 0 0 0-80 41 47 47 0 0 0 31.1 39.9 47 47 0 0 0 50.7-10.4"/><path fill="#B82EA6" d="M271 414q35-34.6 69.4-69c10.2-10 18.1-10 28.4.2l29.4 29.3q14.7 14.7 28-1l74.4-89c9.3-11.1 20-11.1 29.3 0l115.6 138 3.4 4.4H259.4l-1-1.3z"/><path fill="#B72EA6" d="M404 270a47 47 0 0 1-50.4 10.2 47 47 0 0 1-31.1-40 48.4 48.4 0 0 1 80-41 47.7 47.7 0 0 1 1.6 70.9"/></svg>