<svg xmlns="http://www.w3.org/2000/svg" viewBox="0 0 900 600" xml:space="preserve"><path fill="#4D792D" d="M655 601H1V1h900v600zm-321.1-73.9q6.4.5 13 .6l180.2.5c14 0 28-.8 42.3-1l2.5-.3c15.6-.9 30.7-3.7 44.8-11 20.3-10.6 31-28.5 36-49.9 4.1-17.9 6.5-36.3 9.4-54.5q5-31.2 9.5-62.6c4.5-32 10-63.9 9.3-96.3a82 82 0 0 0-7.7-33.4 62 62 0 0 0-36.8-32.5c-4.4-1.7-6.7-3.8-7.4-8.7a60 60 0 0 0-39.8-50.7c-2.9-1.1-4-2.6-4.3-5.7a57 57 0 0 0-58.6-51.2q-75.2-.6-150.5 0c-28.7.2-50.8 17-57.9 44.6a22 22 0 0 1-13.1 16.2 58 58 0 0 0-32 46.6c-.5 4.8-2.5 7.2-7 8.8-27.2 9.6-40.2 30.5-44.6 57.7-2.4 14.4-1 28.8 1 43.2 3.4 25.9 6.4 51.8 10 77.7q4 30 9.1 59.6a498 498 0 0 0 9.9 47.4 67 67 0 0 0 32.3 42.7 108 108 0 0 0 50.4 12.2"/><path fill="#1C274C" d="M569 527c-14 .4-28 1.2-42 1.2q-90-.1-180.2-.5-6.3-.1-13.5-.7H331c-16.7-.6-32.7-4-47.5-12a67 67 0 0 1-32.3-42.8 487 487 0 0 1-9.9-47.4q-5-29.7-9.1-59.6c-3.6-25.9-6.6-51.8-10-77.7a148 148 0 0 1-1-43.2c4.4-27.2 17.4-48 44.6-57.7 4.5-1.6 6.5-4 7-8.8a58 58 0 0 1 32-46.6c7.2-3.8 11-7.8 13.1-16.2a57.5 57.5 0 0 1 58-44.6q75-.6 150.4 0a57 57 0 0 1 58.6 51.2c.4 3.1 1.4 4.6 4.3 5.7A60 60 0 0 1 629 178c.7 4.9 3 7 7.4 8.7a62 62 0 0 1 36.8 32.5 82 82 0 0 1 7.7 33.4c.7 32.4-4.8 64.3-9.3 96.3q-4.5 31.5-9.5 62.6c-2.9 18.2-5.3 36.6-9.5 54.5-5 21.4-15.6 39.3-36 50a109 109 0 0 1-47.6 11m14.7-348.8 6.2.8c6.4-.2 7.4-1.8 4.6-7.4l-1.3-2.1c-6.6-10.2-16.3-14.2-28-14.2H339.6a37 37 0 0 0-21.6 4.8c-6 4.2-11 9.3-12.4 17.7l5.5.3q20.4-.8 40.9-1 83.4-.3 167-.2 31.7.1 64.6 1.3m-37.2 30.7c-84 1-167.9-3-251.7 3-25.4 1.8-40.1 15.6-41.8 40.8q-.3 4.5 0 9c1.1 14.7 2 29.5 3.8 44.2q4.2 35.7 9.4 71.2 5.7 36.8 12.2 73.3 1.5 7.4 4 14.4a38.5 38.5 0 0 0 32.6 28 215 215 0 0 0 31.7 3q100.3.5 200.5.2c13 0 26.2-1.4 39.2-3.1a38 38 0 0 0 33.5-29c2-6.8 4-13.7 5-20.8q4.3-27.3 8.3-54.8 5.3-34.5 10.1-69c2.2-15.5 4.4-31 5.2-46.6.6-11-.5-22.3-2-33.3-1-8-5.7-15-13-18.6a72 72 0 0 0-23.8-8.4c-20.7-2-41.5-2.4-63.2-3.5m-188-101c-2.2 2.7-4.9 5.1-6.7 8-3.8 6.2-2.8 7.8 4.3 7.8h190.5c6.1 0 7-1.4 4.2-6.7a27 27 0 0 0-24.8-14.8H376a28 28 0 0 0-17.4 5.8"/><path fill="#2E4642" d="M331.2 527h1.6zm238 0 1.6-.1z"/><path fill="#4D792D" d="M547 209c21.2 1 42 1.4 62.7 3.4a72 72 0 0 1 23.8 8.4 24 24 0 0 1 13 18.6c1.5 11 2.6 22.2 2 33.3-.8 15.5-3 31-5.2 46.6q-4.8 34.5-10.1 69c-2.8 18.3-5.2 36.6-8.2 54.8q-1.8 10.6-5.1 20.8a38 38 0 0 1-33.5 29 305 305 0 0 1-39.2 3q-100.2.4-200.5 0c-10.5-.1-21.2-1.4-31.7-3a38.5 38.5 0 0 1-32.6-28q-2.5-7.2-4-14.5-6.5-36.6-12.2-73.3-5.2-35.5-9.4-71.2c-1.7-14.7-2.7-29.5-3.9-44.2q-.2-4.5.1-9c1.7-25.2 16.4-39 41.8-40.8 83.8-6 167.8-2 252.2-3m-145.7 73c-6.3 7-9 15.4-9.2 24.7v88.9c0 24.8 27 45.8 52.4 29.1 22.9-15.1 46.8-28.7 70-43.5a35.8 35.8 0 0 0 .2-60.7 3033 3033 0 0 0-71.9-44.4c-14.4-8.7-28.8-6.5-41.5 5.9m181.7-104q-32-.8-64-1l-167 .1c-13.6 0-27.2.7-40.8 1q-2.4.1-5.5-.2c1.3-8.4 6.3-13.5 12.4-17.7 6.5-4.4 14-4.8 21.6-4.8h225.4c11.8 0 21.5 4 28.1 14.2q.8 1 1.3 2.1c2.8 5.6 1.8 7.2-5.3 7.2zm-224.2-70.1q8-5.8 17.2-5.6h150q16.7 0 24.8 14.8c2.9 5.3 2 6.7-4.2 6.7H356.1c-7.1 0-8.1-1.6-4.3-7.8 1.8-2.9 4.5-5.3 7-8.1"/><path fill="#1C284C" d="M401.6 281.6c12.4-12.1 26.8-14.3 41.2-5.6q36.3 21.7 72 44.4a35.8 35.8 0 0 1-.3 60.7c-23.2 14.8-47.1 28.4-70 43.5-25.4 16.7-52.4-4.3-52.4-29v-89c.1-9.3 2.9-17.7 9.5-25M447 385.4l48-29.6c5.4-3.3 5.5-7 .3-10.2l-66-40.6c-3.7-2.3-5-1.6-5 2.9q-.3 42.7 0 85.4c0 4.7 1.3 5.2 5.5 2.7z"/><path fill="#4D782D" d="M446.6 385.6 429.8 396c-4.2 2.5-5.6 2-5.6-2.7v-85.4c0-4.5 1.4-5.2 5.2-3l65.9 40.7c5.2 3.3 5.1 7-.3 10.2q-23.9 14.9-48.4 29.8"/></svg>