<svg xmlns="http://www.w3.org/2000/svg" viewBox="0 0 900 600" xml:space="preserve"><path fill="#817979" d="M620 601H1V1h900v600zM466.5 89.9h-221C227 89.9 215 101.7 215 120v306.5c0 4-.1 6.2-5.3 6.7-9.5.7-15.6 8.4-15.6 18v39c0 11.2 7.4 18.6 18.4 18.6h478c10 0 17.4-6.6 17.5-16.5q.4-21.3 0-42.5c-.1-8.1-5.2-15.4-12.4-16.2-6.7-.6-6.7-4-6.7-9.1V122q0-32-31.8-32.1z"/><path fill="#010101" d="M467 89.9h190q31.7 0 31.9 32.1v302.5c0 5-.1 8.5 6.6 9.1 7.2.8 12.3 8 12.4 16.2q.4 21.2 0 42.4c-.1 10-7.5 16.6-17.5 16.6h-478c-11 0-18.4-7.4-18.4-18.5v-39c0-9.7 6-17.4 15.6-18.1 5.2-.5 5.3-2.8 5.3-6.7V120c.1-18.3 12-30.1 30.6-30.1zM267 332.5V421c0 6.6 0 6.7 6.9 6.7h356.3c6.6 0 6.6 0 6.6-6.6V147.7c0-6.4 0-6.4-6.6-6.4H273.8c-6.8 0-6.8 0-6.8 6.8zm309.7 151.8q9-8.5 5.2-18.7a16.4 16.4 0 0 0-30.4-.4 16 16 0 0 0 4 18.2c6 5.5 12.4 5.9 21.2 1m54.8-28.6c-10.9-2.2-20.3 4.9-20.4 15.3a17 17 0 0 0 14.7 16.7c7.7 1 15.5-4.5 17.6-12.3 2.2-8.4-2.2-16-11.9-19.7"/><path fill="#807878" d="M267 332V148c0-6.7 0-6.7 6.8-6.7H630c6.7 0 6.7 0 6.7 6.4v273.4c0 6.5 0 6.6-6.6 6.6H274c-7 0-7 0-7-6.7zm218.6 59H550q4.5.2 9-.7a24 24 0 0 0 19.4-17.4q4.6-14.8-6.5-26.2c-6.1-6.1-13.7-7.4-22-7.4h-198l-7 .3a25.6 25.6 0 0 0-22.7 29.3C324.5 382.6 335 391 350 391zm4.5-170.5-58.5-38.2c-4.7-3-9.5-4.5-14.6-1.8-5.1 2.6-6.8 7.5-6.8 13v106.3c0 13.1 10.2 18.7 21.1 11.7A9350 9350 0 0 0 512 259c9.9-6.5 9.8-17.4 0-24-7-4.9-14.2-9.4-22-14.4"/><path fill="#7E7676" d="M576.4 484.5c-8.5 4.8-15 4.4-20.9-1a16 16 0 0 1-4-18.3 16.4 16.4 0 0 1 30.4.4q4 10.1-5.5 19M632 456c9.3 3.5 13.7 11.2 11.5 19.6-2 7.8-9.9 13.3-17.6 12.3-8.4-1-14.8-8.3-14.7-16.7.1-10.4 9.5-17.5 20.8-15.2"/><path fill="#010101" d="M485 391H350c-15 0-25.5-8.4-27.8-22a25.6 25.6 0 0 1 22.7-29.4l7-.3h198c8.3 0 15.9 1.3 22 7.4a25 25 0 0 1 6.5 26.2 24 24 0 0 1-19.5 17.4q-4.5.9-8.9.7zm5.4-170.3q11 7 21.6 14.1c9.8 6.7 9.9 17.6 0 24.1a9350 9350 0 0 1-80.8 52.6c-10.9 7-21 1.4-21-11.7q-.2-53.1-.1-106.4c0-5.4 1.7-10.3 6.8-13s9.9-1.2 14.6 1.9q29 19.1 58.9 38.4"/></svg>